<svg width="287" height="32" viewBox="0 0 287 32" xmlns="http://www.w3.org/2000/svg"><title>logo-inverted</title><g fill="none" fill-rule="evenodd"><path d="M279.144 24.266c0 .24.213.455.45.455h2.84c.237 0 .45-.21.45-.45V11.46h3.386c.26 0 .45-.218.45-.458V8.384c0-.24-.19-.455-.45-.455h-10.51a.45.45 0 0 0-.45.45V11c0 .24.19.455.45.455h3.384v12.81zm-18.605 0c0 .24.18.455.45.455h9.8a.45.45 0 0 0 .44-.45v-2.62a.45.45 0 0 0-.45-.45h-6.56v-3.24h5.39a.45.45 0 0 0 .45-.45v-2.62a.47.47 0 0 0-.45-.45h-5.398v-2.98h6.555a.45.45 0 0 0 .45-.455V8.38c0-.24-.19-.455-.45-.455h-9.8a.45.45 0 0 0-.45.454v15.88zm-16.48 0c0 .24.19.455.45.455h9.8a.45.45 0 0 0 .45-.45v-2.62a.45.45 0 0 0-.45-.45h-6.56v-3.24h5.39a.45.45 0 0 0 .45-.45v-2.62a.47.47 0 0 0-.45-.45h-5.4v-2.98h6.555c.26 0 .45-.215.45-.455V8.38c0-.24-.19-.455-.45-.455h-9.8a.45.45 0 0 0-.45.454v15.88zM230.85 15.1v-3.74h3.506c.97 0 1.798.818 1.798 1.825 0 1.008-.83 1.92-1.8 1.92h-3.503zm-3.714 9.17c0 .24.188.454.45.454h2.816c.236 0 .45-.214.45-.454v-6.12h1.633l3.147 6.358c.047.095.19.215.38.215h3.147c.4 0 .57-.383.4-.694l-3.24-6.1c2.06-.84 3.5-2.62 3.5-4.82 0-2.86-2.32-5.18-5.16-5.18h-7.08a.45.45 0 0 0-.45.45v15.89zm-11.955 0c0 .24.22.454.45.454h2.84c.24 0 .45-.214.45-.454V11.46h3.39c.26 0 .45-.218.45-.458V8.384c0-.24-.19-.455-.45-.455H211.8a.45.45 0 0 0-.45.45V11c0 .24.19.455.45.455h3.385v12.81zm-17.7-1.153c.55.552 2.25 1.847 5.33 1.847 3.48 0 5.59-2.494 5.59-4.965 0-3.27-2.94-4.73-4.78-5.47-1.87-.77-2.58-1.44-2.58-2.33 0-.65.64-1.23 1.49-1.23 1.447 0 3.175 1.32 3.388 1.44.215.16.64-.05.807-.32l1.208-1.848c.097-.17.144-.6-.14-.77-.71-.53-2.604-1.8-5.066-1.8-3.645 0-5.467 2.4-5.467 4.775 0 2.88 2.553 4.484 4.59 5.3 1.61.65 2.44 1.416 2.44 2.423 0 .84-.69 1.44-1.635 1.44-1.564 0-3.268-1.27-3.363-1.32-.166-.12-.615-.17-.805.145l-1.11 1.99c-.19.335-.115.43.12.67zm-27.65 1.153c0 .24.21.452.45.452h2.82a.45.45 0 0 0 .45-.454v-6.31h6.77v6.31c0 .24.19.453.45.453h2.82a.47.47 0 0 0 .45-.45V8.38a.47.47 0 0 0-.45-.455h-2.812a.45.45 0 0 0-.45.453v6.05h-6.77V8.382c0-.24-.19-.455-.45-.455h-2.817a.467.467 0 0 0-.447.453v15.885zm-11.72 0c0 .24.22.452.45.452h2.84c.24 0 .45-.214.45-.454V11.46h3.39c.26 0 .45-.218.45-.458V8.384c0-.24-.19-.455-.45-.455h-10.51a.45.45 0 0 0-.45.45V11c0 .24.19.455.45.455h3.39v12.81zm-23.41.36a.45.45 0 0 0 .43.332h.38c.17 0 .33-.12.4-.263l4.31-9.82h.07l4.338 9.81a.48.48 0 0 0 .4.26h.38a.456.456 0 0 0 .42-.34l4.476-16.12c.096-.335-.094-.575-.425-.575h-2.77c-.19 0-.38.17-.42.337l-2.04 8.14h-.096l-3.67-8.448c-.047-.145-.19-.264-.4-.264h-.428a.447.447 0 0 0-.41.26l-3.67 8.447h-.094l-2.037-8.13c-.046-.168-.236-.335-.425-.335h-2.77c-.33 0-.52.24-.427.57l4.476 16.12zm-20.17-8.28c0-2.64 2.13-4.82 4.71-4.82 2.61 0 4.74 2.18 4.74 4.82 0 2.613-2.13 4.772-4.73 4.772-2.58 0-4.71-2.16-4.71-4.774zm-3.78 0c0 4.8 3.77 8.61 8.5 8.61 4.74 0 8.53-3.81 8.53-8.61 0-4.8-3.79-8.66-8.524-8.66s-8.497 3.86-8.497 8.66zM98.16 15.1v-3.74h3.5c.97 0 1.798.816 1.798 1.823 0 1.008-.828 1.92-1.8 1.92H98.15zm-3.718 9.167c0 .24.19.454.45.454h2.81c.24 0 .45-.21.45-.45v-6.12h1.635l3.147 6.36a.44.44 0 0 0 .38.22h3.15c.4 0 .57-.38.4-.69l-3.24-6.094c2.06-.84 3.5-2.614 3.5-4.82 0-2.855-2.32-5.18-5.16-5.18h-7.07a.45.45 0 0 0-.45.454v15.88zM74.98 16.35c0 4.797 3.787 8.587 8.498 8.587 3.432 0 5.87-1.56 5.87-1.56a.588.588 0 0 0 .19-.383l-.024-6.453c0-.24-.19-.45-.426-.45H84.33a.44.44 0 0 0-.45.46v2.38c0 .24.19.43.45.43h1.492v1.4c-.71.287-1.42.383-2.107.383-2.58 0-4.687-2.16-4.687-4.774 0-2.64 2.083-4.85 4.663-4.85 1.16 0 2.2.31 3.1 1.15.19.145.45.145.64-.023l1.87-2.014a.424.424 0 0 0-.04-.65c-1.61-1.42-3.79-2.26-5.77-2.26-4.71 0-8.5 3.837-8.5 8.635z" fill="#2A3034"/></g></svg>