<svg width="287" height="32" viewBox="0 0 287 32" xmlns="http://www.w3.org/2000/svg"><title>logo-inverted</title><g fill="none" fill-rule="evenodd"><path d="M55.072 0H37.486A2.36 2.36 0 0 0 35.3 1.498a2.465 2.465 0 0 0 .513 2.644l.906.928L26.2 15.856l-9.622-9.87a2.32 2.32 0 0 0-3.344 0L.806 18.736a2.474 2.474 0 0 0 0 3.433L7.1 28.62l.025.025c.085.087.173.172.262.255 2.02 1.93 4.634 2.99 7.408 2.99H37.61c2.908 0 5.64-1.162 7.696-3.27l7.188-7.374.906.93c.45.46 1.04.712 1.664.712 1.31 0 2.374-1.09 2.374-2.428V2.424C57.438 1.09 56.378 0 55.072 0zM12.005 28.436a4.57 4.57 0 0 1-3.12-1.227L8.678 27l-6.295-6.45a.14.14 0 0 1 0-.195l12.43-12.75c.026-.027.058-.04.095-.04s.07.013.095.04l9.623 9.87-9.32 9.558a4.578 4.578 0 0 1-3.3 1.403zm43.202-7.97c0 .138-.142.14-.143.14-.027 0-.05-.008-.086-.043l-2.484-2.547-8.766 8.99c-1.634 1.677-3.806 2.6-6.117 2.6h-7.19l3.06-3.138-1.79-1.844-4.83 4.96-11.12.022c.41-.272.8-.59 1.16-.955L39.88 5.07l-2.486-2.54c-.02-.023-.063-.065-.028-.15.034-.086.093-.086.124-.086h17.586c.075 0 .135.06.135.138v18.04zM43.24 12.743l1.774 1.82L49.98 9.47l-1.774-1.82-4.967 5.093zm-8.252 8.464l1.774 1.82 4.967-5.093-1.78-1.82-4.97 5.093z" fill="#66C5C8"/></g></svg>