<?xml version="1.0" encoding="UTF-8" standalone="no"?>
<svg width="256px" height="256px" viewBox="0 0 256 256" version="1.1" xmlns="http://www.w3.org/2000/svg" xmlns:xlink="http://www.w3.org/1999/xlink">
    <!-- Generator: Sketch 45.2 (43514) - http://www.bohemiancoding.com/sketch -->
    <title>Logo</title>
    <desc>Created with Sketch.</desc>
    <defs>
        <linearGradient x1="0%" y1="50%" x2="85.710285%" y2="50%" id="linearGradient-1">
            <stop stop-color="#FFFFFF" stop-opacity="0.15" offset="0%"></stop>
            <stop stop-color="#FFFFFF" offset="100%"></stop>
        </linearGradient>
    </defs>
    <g id="WIP" stroke="none" stroke-width="1" fill="none" fill-rule="evenodd">
        <g id="Logo">
            <rect id="Rectangle-12" fill="#3B3838" transform="translate(128.000000, 128.000000) rotate(90.000000) translate(-128.000000, -128.000000) " x="0" y="0" width="256" height="256"></rect>
            <path d="M75.7170329,223.811508 C75.0097329,223.811508 74.3035329,223.543108 73.7645329,223.004108 C72.6854329,221.927208 72.6854329,220.178208 73.7645329,219.098008 C74.8414329,218.021108 76.6168329,217.994708 77.6948329,219.073808 C78.7728329,220.152908 78.7970329,221.877708 77.7190329,222.955708 L77.6706329,223.004108 C77.1294329,223.543108 76.4232329,223.811508 75.7170329,223.811508 Z M129.542233,134.890808 C127.776733,134.890808 126.007933,134.217608 124.660433,132.869008 C121.962133,130.172908 121.937933,125.776208 124.636233,123.079008 C127.332333,120.382908 131.680633,120.358708 134.375633,123.054808 L134.424033,123.103208 C137.122333,125.800408 137.122333,130.172908 134.424033,132.869008 C133.077633,134.216508 131.307733,134.890808 129.542233,134.890808 Z M160.584233,165.933908 C158.820933,165.933908 157.064233,165.266208 155.714533,163.926408 L155.611133,163.823008 C152.906233,161.134608 152.891933,156.763208 155.581433,154.057208 C158.264333,151.352308 162.640133,151.338008 165.346133,154.026408 L165.452833,154.128708 C168.156633,156.817108 168.169833,161.188508 165.482533,163.894508 C164.135033,165.253008 162.357433,165.933908 160.584233,165.933908 Z M145.062133,150.411808 C143.297733,150.411808 141.528933,149.738608 140.180333,148.390008 L140.076933,148.287708 C137.380833,145.590508 137.380833,141.218008 140.076933,138.521908 C142.773033,135.825808 147.147733,135.825808 149.841633,138.521908 L149.946133,138.624208 C152.643333,141.321408 152.643333,145.692808 149.946133,148.390008 C148.599733,149.737508 146.829833,150.411808 145.062133,150.411808 Z M176.012833,181.410908 C174.248433,181.410908 172.482933,180.744308 171.142033,179.402308 C169.147733,177.408008 168.614233,174.513908 169.560233,172.051008 C169.893533,171.151208 170.420433,170.309708 171.142033,169.585908 C173.837033,166.890908 178.185333,166.866708 180.881433,169.561708 L180.933133,169.610108 C183.629233,172.307308 183.629233,176.679808 180.933133,179.378108 C179.580133,180.732208 177.797033,181.410908 176.012833,181.410908 Z M144.960933,212.488108 C143.194333,212.488108 141.424433,211.814908 140.079133,210.466308 C137.380833,207.770208 137.380833,203.395508 140.079133,200.699408 L140.182533,200.598208 C142.876433,197.899908 147.253333,197.899908 149.947233,200.598208 C152.643333,203.294308 152.643333,207.666808 149.947233,210.362908 L149.843833,210.466308 C148.495233,211.814908 146.725333,212.488108 144.960933,212.488108 Z M160.479733,196.968208 C158.715333,196.968208 156.945433,196.296108 155.597933,194.947508 C152.901833,192.250308 152.901833,187.876708 155.597933,185.180608 L155.699133,185.076108 C158.394133,182.382208 162.769933,182.382208 165.463833,185.076108 C168.161033,187.772208 168.161033,192.146908 165.463833,194.845208 L165.362633,194.947508 C164.016233,196.293908 162.249633,196.968208 160.479733,196.968208 Z M129.492733,227.955208 C127.728333,227.955208 125.958433,227.283108 124.610933,225.932308 C121.912633,223.237308 121.912633,218.864808 124.610933,216.167608 C127.307033,213.470408 131.700433,213.445108 134.396533,216.143408 C137.097033,218.841708 137.121233,223.190008 134.420733,225.883908 L134.372333,225.932308 C133.027033,227.279808 131.259333,227.955208 129.492733,227.955208 Z M107.674233,133.510308 C106.260733,133.510308 104.846133,132.970208 103.768133,131.892208 C101.611033,129.735108 101.586833,126.212908 103.743933,124.054708 C105.899933,121.899808 109.374833,121.874508 111.531933,124.030508 L111.580333,124.078908 C113.738533,126.236008 113.738533,129.734008 111.580333,131.892208 C110.502333,132.970208 109.088833,133.510308 107.674233,133.510308 Z M138.714033,164.553408 C137.308233,164.553408 135.896933,164.017708 134.822233,162.947408 L134.715533,162.842908 C132.549633,160.692408 132.538633,157.196608 134.692433,155.030708 C136.842933,152.867008 140.339833,152.853808 142.504633,155.006508 L142.611333,155.108808 C144.776133,157.259308 144.787133,160.756208 142.635533,162.921008 C141.552033,164.007808 140.134133,164.553408 138.714033,164.553408 Z M123.194133,149.031308 C121.780633,149.031308 120.366033,148.492308 119.288033,147.413208 L119.185733,147.310908 C117.027533,145.152708 117.027533,141.655808 119.185733,139.497608 C121.340633,137.340508 124.841933,137.340508 126.997933,139.497608 L127.100233,139.599908 C129.256233,141.757008 129.256233,145.255008 127.100233,147.413208 C126.023333,148.491208 124.608733,149.031308 123.194133,149.031308 Z M154.144833,180.029308 C152.731333,180.029308 151.323333,179.498008 150.249733,178.424408 C148.653633,176.828308 148.227933,174.509508 148.985833,172.538308 C149.250933,171.815608 149.674433,171.141308 150.249733,170.560508 C152.409033,168.405608 155.882833,168.381408 158.037733,170.536308 L158.087233,170.584708 C160.244333,172.741808 160.244333,176.240908 158.087233,178.399108 C157.001533,179.485908 155.570433,180.029308 154.144833,180.029308 Z M123.092933,211.107608 C121.684933,211.107608 120.276933,210.573008 119.198933,209.504908 C117.035233,207.351108 117.023133,203.853108 119.173633,201.690508 L119.275933,201.586008 C121.427533,199.422308 124.924433,199.410208 127.089233,201.561808 C129.252933,203.712308 129.263933,207.210308 127.114533,209.376208 L127.012233,209.479608 C125.932033,210.566408 124.513033,211.107608 123.092933,211.107608 Z M138.611733,195.587708 C137.200433,195.587708 135.785833,195.049808 134.705633,193.971808 C132.547433,191.811408 132.547433,188.311208 134.705633,186.157408 L134.809033,186.054008 C136.966133,183.899108 140.467433,183.899108 142.622333,186.054008 C144.780533,188.212208 144.780533,191.711308 142.622333,193.868408 L142.517833,193.974008 C141.440933,195.049808 140.025233,195.587708 138.611733,195.587708 Z M107.626933,226.574708 C106.213433,226.574708 104.798833,226.036808 103.720833,224.956608 C101.562633,222.798408 101.562633,219.300408 103.720833,217.143308 C105.876833,214.986208 109.400133,214.963108 111.557233,217.120208 C113.714333,219.278408 113.739633,222.750008 111.581433,224.908208 L111.531933,224.956608 C110.453933,226.036808 109.039333,226.574708 107.626933,226.574708 Z M90.6990329,132.127608 C89.6386329,132.127608 88.5782329,131.723908 87.7697329,130.914308 C86.1505329,129.297308 86.1263329,126.649608 87.7455329,125.032608 C89.3603329,123.415608 91.9607329,123.388108 93.5799329,125.008408 L93.6283329,125.056808 C95.2464329,126.673808 95.2464329,129.297308 93.6283329,130.915408 C92.8198329,131.723908 91.7594329,132.127608 90.6990329,132.127608 Z M121.739933,163.170708 C120.679533,163.170708 119.619133,162.765908 118.810633,161.956308 L118.708333,161.854008 C117.090233,160.235908 117.090233,157.613508 118.708333,155.995408 C120.326433,154.377308 122.948833,154.377308 124.566933,155.995408 L124.669233,156.097708 C126.287333,157.715808 126.287333,160.338208 124.669233,161.956308 C123.859633,162.765908 122.799233,163.170708 121.739933,163.170708 Z M106.217833,147.649708 C105.157433,147.649708 104.098133,147.246008 103.288533,146.436408 L103.186233,146.333008 C101.568133,144.716008 101.568133,142.092508 103.186233,140.474408 C104.804333,138.856308 107.426733,138.856308 109.044833,140.474408 L109.147133,140.577808 C110.765233,142.194808 110.765233,144.818308 109.147133,146.436408 C108.338633,147.246008 107.278233,147.649708 106.217833,147.649708 Z M137.168533,178.647708 C136.110333,178.647708 135.055433,178.250608 134.252433,177.446508 C133.052333,176.246408 132.727833,174.505108 133.300933,173.025608 C133.503333,172.482208 133.817933,171.974008 134.252433,171.538408 C135.868333,169.921408 138.469833,169.893908 140.087933,171.514208 L140.136333,171.562608 C141.755533,173.179608 141.755533,175.802008 140.136333,177.421208 C139.320133,178.239608 138.244333,178.647708 137.168533,178.647708 Z M106.115533,209.727108 C105.059533,209.727108 104.003533,209.326708 103.196133,208.521508 C101.572533,206.908908 101.563733,204.286508 103.177433,202.662908 L103.279733,202.560608 C104.892333,200.935908 107.516933,200.929308 109.138333,202.538608 C110.761933,204.152308 110.769633,206.776908 109.157033,208.398308 L109.054733,208.502808 C108.246233,209.320108 107.180333,209.727108 106.115533,209.727108 Z M121.636533,194.207208 C120.576133,194.207208 119.515733,193.802408 118.707233,192.992808 C117.089133,191.374708 117.089133,188.752308 118.707233,187.136408 L118.809533,187.030808 C120.427633,185.412708 123.050033,185.412708 124.668133,187.030808 C126.286233,188.648908 126.286233,191.271308 124.668133,192.889408 L124.565833,192.992808 C123.757333,193.802408 122.696933,194.207208 121.636533,194.207208 Z M90.6506329,225.192008 C89.5902329,225.192008 88.5298329,224.789408 87.7213329,223.977608 C86.1021329,222.358408 86.1021329,219.738208 87.7213329,218.120108 C89.3372329,216.500908 91.9871329,216.477808 93.6041329,218.095908 C95.2222329,219.716208 95.2464329,222.312208 93.6283329,223.931408 L93.5799329,223.980908 C92.7703329,224.789408 91.7099329,225.192008 90.6506329,225.192008 Z M75.7654329,130.748208 C75.0581329,130.748208 74.3519329,130.478708 73.8129329,129.939708 C72.7338329,128.860608 72.7096329,127.087408 73.7887329,126.009408 C74.8645329,124.931408 76.5915329,124.905008 77.6706329,125.985208 L77.7179329,126.032508 C78.7959329,127.109408 78.7959329,128.859508 77.7179329,129.938608 C77.1789329,130.477608 76.4716329,130.748208 75.7654329,130.748208 Z M106.806333,161.789108 C106.102333,161.789108 105.398333,161.522908 104.860433,160.987208 L104.755933,160.884908 C103.673533,159.809108 103.666933,158.061208 104.742733,156.978808 C105.819633,155.897508 107.569733,155.890908 108.648833,156.965608 L108.752233,157.069008 C109.835733,158.144808 109.841233,159.892708 108.765433,160.975108 C108.226433,161.518508 107.515833,161.789108 106.806333,161.789108 Z M91.2864329,146.269208 C90.5791329,146.269208 89.8729329,145.999708 89.3339329,145.459608 L89.2305329,145.356208 C88.1514329,144.278208 88.1514329,142.529208 89.2305329,141.450108 C90.3096329,140.371008 92.0575329,140.371008 93.1366329,141.450108 L93.2400329,141.553508 C94.3191329,142.631508 94.3191329,144.380508 93.2400329,145.459608 C92.6988329,145.999708 91.9926329,146.269208 91.2864329,146.269208 Z M122.236033,177.269408 C121.529833,177.269408 120.828033,177.005408 120.295633,176.470808 C119.489333,175.668908 119.272633,174.504008 119.660933,173.516208 C119.791833,173.149908 120.003033,172.807808 120.295633,172.516308 C121.372533,171.438308 123.099533,171.411908 124.176433,172.492108 L124.224833,172.540508 C125.302833,173.617408 125.302833,175.368608 124.224833,176.446608 C123.680333,176.994408 122.957633,177.269408 122.236033,177.269408 Z M91.1830329,208.346608 C90.4757329,208.346608 89.7706329,208.076008 89.2305329,207.538108 C88.1514329,206.461208 88.1514329,204.712208 89.2305329,203.630908 L89.3339329,203.527508 C90.4130329,202.450608 92.1598329,202.450608 93.2400329,203.527508 C94.3191329,204.605508 94.3191329,206.356708 93.2400329,207.433608 L93.1366329,207.538108 C92.5954329,208.074908 91.8892329,208.346608 91.1830329,208.346608 Z M106.704033,192.826708 C105.996733,192.826708 105.290533,192.556108 104.751533,192.017108 C103.672433,190.940208 103.672433,189.189008 104.751533,188.111008 L104.853833,188.006508 C105.931833,186.928508 107.680833,186.928508 108.759933,188.006508 C109.837933,189.084508 109.837933,190.835708 108.759933,191.912608 L108.657633,192.017108 C108.117533,192.556108 107.410233,192.826708 106.704033,192.826708 Z M129.542233,41.8908079 C127.776733,41.8908079 126.007933,41.2176079 124.660433,39.8690079 C121.962133,37.1729079 121.937933,32.7762079 124.636233,30.0790079 C127.332333,27.3829079 131.680633,27.3587079 134.375633,30.0548079 L134.424033,30.1032079 C137.122333,32.8004079 137.122333,37.1729079 134.424033,39.8690079 C133.077633,41.2165079 131.307733,41.8908079 129.542233,41.8908079 Z M160.584233,72.9339079 C158.820933,72.9339079 157.064233,72.2662079 155.714533,70.9264079 L155.611133,70.8230079 C152.906233,68.1346079 152.891933,63.7632079 155.581433,61.0572079 C158.264333,58.3523079 162.640133,58.3380079 165.346133,61.0264079 L165.452833,61.1287079 C168.156633,63.8171079 168.169833,68.1885079 165.482533,70.8945079 C164.135033,72.2530079 162.357433,72.9339079 160.584233,72.9339079 Z M145.062133,57.4118079 C143.297733,57.4118079 141.528933,56.7386079 140.180333,55.3900079 L140.076933,55.2877079 C137.380833,52.5905079 137.380833,48.2180079 140.076933,45.5219079 C142.773033,42.8258079 147.147733,42.8258079 149.841633,45.5219079 L149.946133,45.6242079 C152.643333,48.3214079 152.643333,52.6928079 149.946133,55.3900079 C148.599733,56.7375079 146.829833,57.4118079 145.062133,57.4118079 Z M176.012833,88.4109079 C174.248433,88.4109079 172.482933,87.7443079 171.142033,86.4023079 C169.147733,84.4080079 168.614233,81.5139079 169.560233,79.0510079 C169.893533,78.1512079 170.420433,77.3097079 171.142033,76.5859079 C173.837033,73.8909079 178.185333,73.8667079 180.881433,76.5617079 L180.933133,76.6101079 C183.629233,79.3073079 183.629233,83.6798079 180.933133,86.3781079 C179.580133,87.7322079 177.797033,88.4109079 176.012833,88.4109079 Z M144.960933,119.488108 C143.194333,119.488108 141.424433,118.814908 140.079133,117.466308 C137.380833,114.770208 137.380833,110.395508 140.079133,107.699408 L140.182533,107.598208 C142.876433,104.899908 147.253333,104.899908 149.947233,107.598208 C152.643333,110.294308 152.643333,114.666808 149.947233,117.362908 L149.843833,117.466308 C148.495233,118.814908 146.725333,119.488108 144.960933,119.488108 Z M160.479733,103.968208 C158.715333,103.968208 156.945433,103.296108 155.597933,101.947508 C152.901833,99.2503079 152.901833,94.8767079 155.597933,92.1806079 L155.699133,92.0761079 C158.394133,89.3822079 162.769933,89.3822079 165.463833,92.0761079 C168.161033,94.7722079 168.161033,99.1469079 165.463833,101.845208 L165.362633,101.947508 C164.016233,103.293908 162.249633,103.968208 160.479733,103.968208 Z M107.674233,40.5103079 C106.260733,40.5103079 104.846133,39.9702079 103.768133,38.8922079 C101.611033,36.7351079 101.586833,33.2129079 103.743933,31.0547079 C105.899933,28.8998079 109.374833,28.8745079 111.531933,31.0305079 L111.580333,31.0789079 C113.738533,33.2360079 113.738533,36.7340079 111.580333,38.8922079 C110.502333,39.9702079 109.088833,40.5103079 107.674233,40.5103079 Z M138.714033,71.5534079 C137.308233,71.5534079 135.896933,71.0177079 134.822233,69.9474079 L134.715533,69.8429079 C132.549633,67.6924079 132.538633,64.1966079 134.692433,62.0307079 C136.842933,59.8670079 140.339833,59.8538079 142.504633,62.0065079 L142.611333,62.1088079 C144.776133,64.2593079 144.787133,67.7562079 142.635533,69.9210079 C141.552033,71.0078079 140.134133,71.5534079 138.714033,71.5534079 Z M123.194133,56.0313079 C121.780633,56.0313079 120.366033,55.4923079 119.288033,54.4132079 L119.185733,54.3109079 C117.027533,52.1527079 117.027533,48.6558079 119.185733,46.4976079 C121.340633,44.3405079 124.841933,44.3405079 126.997933,46.4976079 L127.100233,46.5999079 C129.256233,48.7570079 129.256233,52.2550079 127.100233,54.4132079 C126.023333,55.4912079 124.608733,56.0313079 123.194133,56.0313079 Z M154.144833,87.0293079 C152.731333,87.0293079 151.323333,86.4980079 150.249733,85.4244079 C148.653633,83.8283079 148.227933,81.5095079 148.985833,79.5383079 C149.250933,78.8156079 149.674433,78.1413079 150.249733,77.5605079 C152.409033,75.4056079 155.882833,75.3814079 158.037733,77.5363079 L158.087233,77.5847079 C160.244333,79.7418079 160.244333,83.2409079 158.087233,85.3991079 C157.001533,86.4859079 155.570433,87.0293079 154.144833,87.0293079 Z M123.092933,118.107608 C121.684933,118.107608 120.276933,117.573008 119.198933,116.504908 C117.035233,114.351108 117.023133,110.853108 119.173633,108.690508 L119.275933,108.586008 C121.427533,106.422308 124.924433,106.410208 127.089233,108.561808 C129.252933,110.712308 129.263933,114.210308 127.114533,116.376208 L127.012233,116.479608 C125.932033,117.566408 124.513033,118.107608 123.092933,118.107608 Z M138.611733,102.587708 C137.200433,102.587708 135.785833,102.049808 134.705633,100.971808 C132.547433,98.8114079 132.547433,95.3112079 134.705633,93.1574079 L134.809033,93.0540079 C136.966133,90.8991079 140.467433,90.8991079 142.622333,93.0540079 C144.780533,95.2122079 144.780533,98.7113079 142.622333,100.868408 L142.517833,100.974008 C141.440933,102.049808 140.025233,102.587708 138.611733,102.587708 Z M90.6990329,39.1276079 C89.6386329,39.1276079 88.5782329,38.7239079 87.7697329,37.9143079 C86.1505329,36.2973079 86.1263329,33.6496079 87.7455329,32.0326079 C89.3603329,30.4156079 91.9607329,30.3881079 93.5799329,32.0084079 L93.6283329,32.0568079 C95.2464329,33.6738079 95.2464329,36.2973079 93.6283329,37.9154079 C92.8198329,38.7239079 91.7594329,39.1276079 90.6990329,39.1276079 Z M121.739933,70.1707079 C120.679533,70.1707079 119.619133,69.7659079 118.810633,68.9563079 L118.708333,68.8540079 C117.090233,67.2359079 117.090233,64.6135079 118.708333,62.9954079 C120.326433,61.3773079 122.948833,61.3773079 124.566933,62.9954079 L124.669233,63.0977079 C126.287333,64.7158079 126.287333,67.3382079 124.669233,68.9563079 C123.859633,69.7659079 122.799233,70.1707079 121.739933,70.1707079 Z M106.217833,54.6497079 C105.157433,54.6497079 104.098133,54.2460079 103.288533,53.4364079 L103.186233,53.3330079 C101.568133,51.7160079 101.568133,49.0925079 103.186233,47.4744079 C104.804333,45.8563079 107.426733,45.8563079 109.044833,47.4744079 L109.147133,47.5778079 C110.765233,49.1948079 110.765233,51.8183079 109.147133,53.4364079 C108.338633,54.2460079 107.278233,54.6497079 106.217833,54.6497079 Z M137.168533,85.6477079 C136.110333,85.6477079 135.055433,85.2506079 134.252433,84.4465079 C133.052333,83.2464079 132.727833,81.5051079 133.300933,80.0256079 C133.503333,79.4822079 133.817933,78.9740079 134.252433,78.5384079 C135.868333,76.9214079 138.469833,76.8939079 140.087933,78.5142079 L140.136333,78.5626079 C141.755533,80.1796079 141.755533,82.8020079 140.136333,84.4212079 C139.320133,85.2396079 138.244333,85.6477079 137.168533,85.6477079 Z M106.115533,116.727108 C105.059533,116.727108 104.003533,116.326708 103.196133,115.521508 C101.572533,113.908908 101.563733,111.286508 103.177433,109.662908 L103.279733,109.560608 C104.892333,107.935908 107.516933,107.929308 109.138333,109.538608 C110.761933,111.152308 110.769633,113.776908 109.157033,115.398308 L109.054733,115.502808 C108.246233,116.320108 107.180333,116.727108 106.115533,116.727108 Z M121.636533,101.207208 C120.576133,101.207208 119.515733,100.802408 118.707233,99.9928079 C117.089133,98.3747079 117.089133,95.7523079 118.707233,94.1364079 L118.809533,94.0308079 C120.427633,92.4127079 123.050033,92.4127079 124.668133,94.0308079 C126.286233,95.6489079 126.286233,98.2713079 124.668133,99.8894079 L124.565833,99.9928079 C123.757333,100.802408 122.696933,101.207208 121.636533,101.207208 Z M75.7654329,37.7482079 C75.0581329,37.7482079 74.3519329,37.4787079 73.8129329,36.9397079 C72.7338329,35.8606079 72.7096329,34.0874079 73.7887329,33.0094079 C74.8645329,31.9314079 76.5915329,31.9050079 77.6706329,32.9852079 L77.7179329,33.0325079 C78.7959329,34.1094079 78.7959329,35.8595079 77.7179329,36.9386079 C77.1789329,37.4776079 76.4716329,37.7482079 75.7654329,37.7482079 Z M106.806333,68.7891079 C106.102333,68.7891079 105.398333,68.5229079 104.860433,67.9872079 L104.755933,67.8849079 C103.673533,66.8091079 103.666933,65.0612079 104.742733,63.9788079 C105.819633,62.8975079 107.569733,62.8909079 108.648833,63.9656079 L108.752233,64.0690079 C109.835733,65.1448079 109.841233,66.8927079 108.765433,67.9751079 C108.226433,68.5185079 107.515833,68.7891079 106.806333,68.7891079 Z M91.2864329,53.2692079 C90.5791329,53.2692079 89.8729329,52.9997079 89.3339329,52.4596079 L89.2305329,52.3562079 C88.1514329,51.2782079 88.1514329,49.5292079 89.2305329,48.4501079 C90.3096329,47.3710079 92.0575329,47.3710079 93.1366329,48.4501079 L93.2400329,48.5535079 C94.3191329,49.6315079 94.3191329,51.3805079 93.2400329,52.4596079 C92.6988329,52.9997079 91.9926329,53.2692079 91.2864329,53.2692079 Z M122.236033,84.2694079 C121.529833,84.2694079 120.828033,84.0054079 120.295633,83.4708079 C119.489333,82.6689079 119.272633,81.5040079 119.660933,80.5162079 C119.791833,80.1499079 120.003033,79.8078079 120.295633,79.5163079 C121.372533,78.4383079 123.099533,78.4119079 124.176433,79.4921079 L124.224833,79.5405079 C125.302833,80.6174079 125.302833,82.3686079 124.224833,83.4466079 C123.680333,83.9944079 122.957633,84.2694079 122.236033,84.2694079 Z M91.1830329,115.346608 C90.4757329,115.346608 89.7706329,115.076008 89.2305329,114.538108 C88.1514329,113.461208 88.1514329,111.712208 89.2305329,110.630908 L89.3339329,110.527508 C90.4130329,109.450608 92.1598329,109.450608 93.2400329,110.527508 C94.3191329,111.605508 94.3191329,113.356708 93.2400329,114.433608 L93.1366329,114.538108 C92.5954329,115.074908 91.8892329,115.346608 91.1830329,115.346608 Z M106.704033,99.8267079 C105.996733,99.8267079 105.290533,99.5561079 104.751533,99.0171079 C103.672433,97.9402079 103.672433,96.1890079 104.751533,95.1110079 L104.853833,95.0065079 C105.931833,93.9285079 107.680833,93.9285079 108.759933,95.0065079 C109.837933,96.0845079 109.837933,97.8357079 108.759933,98.9126079 L108.657633,99.0171079 C108.117533,99.5561079 107.410233,99.8267079 106.704033,99.8267079 Z" id="Combined-Shape" fill="url(#linearGradient-1)" fill-rule="nonzero" transform="translate(127.955208, 128.000000) rotate(270.000000) translate(-127.955208, -128.000000) "></path>
        </g>
    </g>
</svg>